<svg width="483" height="483" viewBox="0 0 483 483" fill="none" xmlns="http://www.w3.org/2000/svg">
<g clip-path="url(#clip0_217_10)">
<path d="M238.85 77.57L261.73 94.8699L244.43 117.75L221.55 100.45L178.3 157.651C173.712 163.719 166.901 167.716 159.365 168.762C151.83 169.809 144.188 167.819 138.12 163.231C144.188 167.819 148.185 174.63 149.231 182.165C150.278 189.7 148.288 197.343 143.7 203.411L100.45 260.611L123.33 277.911L106.03 300.791L83.1502 283.491C73.2448 271.147 68.055 255.895 77.57 243.311L112.17 197.551C116.758 191.483 118.748 183.84 117.701 176.305C116.655 168.77 112.658 161.959 106.59 157.371L95.1496 148.721L112.45 125.841L123.89 134.491C129.958 139.079 137.6 141.069 145.135 140.022C152.671 138.976 159.481 134.979 164.07 128.91L198.67 83.1502C203.258 77.082 210.069 73.085 217.604 72.0386C225.139 70.9921 232.781 72.9818 238.85 77.57ZM399.011 198.67C405.079 203.258 409.076 210.069 410.122 217.604C411.169 225.139 409.179 232.781 404.591 238.85L369.991 284.61C365.403 290.678 363.413 298.32 364.459 305.856C365.506 313.391 369.503 320.202 375.571 324.79L387.011 333.44L369.711 356.32L358.271 347.67C352.203 343.082 344.561 341.092 337.025 342.139C329.49 343.185 322.679 347.182 318.091 353.25L283.491 399.011C278.903 405.079 272.092 409.076 264.557 410.122C257.022 411.169 249.379 409.179 243.311 404.591L220.431 387.291L237.731 364.411L260.611 381.711L303.861 324.51C308.449 318.442 315.26 314.445 322.795 313.399C330.33 312.352 337.973 314.342 344.041 318.93C337.973 314.342 333.976 307.531 332.929 299.996C331.883 292.461 333.873 284.818 338.461 278.75L381.711 221.55L358.83 204.25L376.13 181.37L399.011 198.67ZM215.13 275.401C218.165 277.695 220.163 281.1 220.686 284.868C221.21 288.635 220.215 292.457 217.921 295.491C215.626 298.525 212.221 300.523 208.453 301.046C204.686 301.57 200.865 300.575 197.831 298.281C194.796 295.987 192.798 292.581 192.275 288.814C191.751 285.046 192.746 281.225 195.04 278.191C197.335 275.157 200.74 273.158 204.508 272.635C208.275 272.112 212.096 273.106 215.13 275.401ZM169.37 240.801C172.404 243.095 174.403 246.5 174.926 250.268C175.449 254.036 174.454 257.857 172.16 260.891C169.866 263.925 166.461 265.923 162.693 266.447C158.926 266.97 155.104 265.975 152.07 263.681C149.036 261.387 147.038 257.981 146.514 254.214C145.991 250.446 146.986 246.625 149.28 243.591C151.574 240.557 154.98 238.558 158.747 238.035C162.515 237.512 166.336 238.507 169.37 240.801ZM260.891 310C263.925 312.295 265.923 315.7 266.447 319.468C266.97 323.235 265.975 327.056 263.681 330.091C261.387 333.125 257.981 335.123 254.214 335.646C250.446 336.17 246.625 335.175 243.591 332.881C240.557 330.586 238.558 327.181 238.035 323.413C237.512 319.646 238.507 315.825 240.801 312.791C243.095 309.756 246.5 307.758 250.268 307.235C254.035 306.711 257.857 307.706 260.891 310Z" fill="black"/>
</g>
<defs>
<clipPath id="clip0_217_10">
<rect width="344.211" height="344.211" fill="white" transform="translate(207.599) rotate(37.0933)"/>
</clipPath>
</defs>
</svg>
