<svg width="84" height="84" viewBox="0 0 84 84" fill="none" xmlns="http://www.w3.org/2000/svg">
<path d="M28.096 67.6367C28.096 67.9841 27.7065 68.262 27.2153 68.262C26.6565 68.3141 26.2669 68.0362 26.2669 67.6367C26.2669 67.2893 26.6565 67.0114 27.1476 67.0114C27.6556 66.9593 28.096 67.2372 28.096 67.6367ZM22.829 66.855C22.7105 67.2024 23.0492 67.6019 23.5573 67.7062C23.9976 67.8798 24.5056 67.7062 24.6073 67.3588C24.7089 67.0114 24.3871 66.6119 23.879 66.4556C23.4387 66.334 22.9476 66.5077 22.829 66.855ZM30.3145 66.5598C29.8234 66.6814 29.4847 67.0114 29.5355 67.4109C29.5863 67.7583 30.0266 67.9841 30.5347 67.8625C31.0258 67.7409 31.3645 67.4109 31.3137 67.0635C31.2629 66.7335 30.8056 66.5077 30.3145 66.5598ZM41.4581 0C17.9685 0 0 18.29 0 42.3815C0 61.6442 11.821 78.1278 28.7056 83.9292C30.8734 84.3287 31.6355 82.9565 31.6355 81.8275C31.6355 80.7506 31.5847 74.8103 31.5847 71.1627C31.5847 71.1627 19.7298 73.7681 17.2403 65.9866C17.2403 65.9866 15.3097 60.9321 12.5323 59.6294C12.5323 59.6294 8.65403 56.9023 12.8032 56.9545C12.8032 56.9545 17.0202 57.3018 19.3403 61.4358C23.0492 68.1404 29.2645 66.2124 31.6863 65.066C32.0758 62.2869 33.1766 60.3589 34.396 59.2125C24.929 58.1356 15.3774 56.7287 15.3774 40.0192C15.3774 35.2426 16.6645 32.8456 19.3742 29.7886C18.9339 28.6596 17.4944 24.0046 19.8145 17.9948C23.354 16.8657 31.5 22.6845 31.5 22.6845C34.8871 21.7118 38.5282 21.2081 42.1355 21.2081C45.7427 21.2081 49.3839 21.7118 52.771 22.6845C52.771 22.6845 60.9169 16.8484 64.4565 17.9948C66.7766 24.022 65.3371 28.6596 64.8968 29.7886C67.6065 32.863 69.2661 35.26 69.2661 40.0192C69.2661 56.7808 59.2911 58.1182 49.8242 59.2125C51.3823 60.5847 52.7032 63.1901 52.7032 67.2719C52.7032 73.1254 52.6524 80.3685 52.6524 81.7928C52.6524 82.9218 53.4315 84.294 55.5823 83.8945C72.5177 78.1278 84 61.6442 84 42.3815C84 18.29 64.9476 0 41.4581 0ZM16.4613 59.9073C16.2411 60.081 16.2919 60.4805 16.5798 60.8105C16.8508 61.0884 17.2403 61.21 17.4605 60.9842C17.6806 60.8105 17.6298 60.411 17.3419 60.081C17.071 59.803 16.6815 59.6815 16.4613 59.9073ZM14.6323 58.5003C14.5137 58.7261 14.6831 59.0041 15.0218 59.1777C15.2927 59.3514 15.6315 59.2993 15.75 59.0562C15.8685 58.8304 15.6992 58.5524 15.3605 58.3788C15.0218 58.2745 14.7508 58.3266 14.6323 58.5003ZM20.1194 64.6839C19.8484 64.9097 19.95 65.4308 20.3395 65.7608C20.729 66.1603 21.2202 66.2124 21.4403 65.9345C21.6605 65.7087 21.5589 65.1876 21.2202 64.8576C20.8476 64.4581 20.3395 64.406 20.1194 64.6839ZM18.1887 62.1306C17.9177 62.3043 17.9177 62.7559 18.1887 63.1554C18.4597 63.5549 18.9169 63.7285 19.1371 63.5549C19.4081 63.329 19.4081 62.8774 19.1371 62.4779C18.9 62.0784 18.4597 61.9048 18.1887 62.1306Z" fill="black"/>
</svg>
