<svg width="88" height="86" viewBox="0 0 88 86" fill="none" xmlns="http://www.w3.org/2000/svg">
<circle cx="44" cy="43" r="42" fill="url(#paint0_linear_169_7)"/>
<path d="M29.8891 66.7508C29.8891 67.0867 29.4937 67.3555 28.9953 67.3555C28.4281 67.4059 28.0328 67.1371 28.0328 66.7508C28.0328 66.4148 28.4281 66.1461 28.9266 66.1461C29.4422 66.0957 29.8891 66.3645 29.8891 66.7508ZM24.5438 65.9949C24.4234 66.3309 24.7672 66.7172 25.2828 66.818C25.7297 66.9859 26.2453 66.818 26.3484 66.482C26.4516 66.1461 26.125 65.7598 25.6094 65.6086C25.1625 65.491 24.6641 65.659 24.5438 65.9949ZM32.1406 65.7094C31.6422 65.827 31.2984 66.1461 31.35 66.5324C31.4016 66.8684 31.8484 67.0867 32.3641 66.9691C32.8625 66.8516 33.2062 66.5324 33.1547 66.1965C33.1031 65.8774 32.6391 65.659 32.1406 65.7094ZM43.45 1.34375C19.6109 1.34375 1.375 19.0309 1.375 42.3281C1.375 60.9559 13.3719 76.8961 30.5078 82.5063C32.7078 82.8926 33.4813 81.5656 33.4813 80.4738C33.4813 79.4324 33.4297 73.6879 33.4297 70.1606C33.4297 70.1606 21.3984 72.6801 18.8719 65.1551C18.8719 65.1551 16.9125 60.2672 14.0938 59.0074C14.0938 59.0074 10.1578 56.3703 14.3687 56.4207C14.3687 56.4207 18.6484 56.7566 21.0031 60.7543C24.7672 67.2379 31.075 65.3734 33.5328 64.2649C33.9281 61.5774 35.0453 59.7129 36.2828 58.6043C26.675 57.5629 16.9813 56.2023 16.9813 40.0438C16.9813 35.4246 18.2875 33.1066 21.0375 30.1504C20.5906 29.0586 19.1297 24.557 21.4844 18.7453C25.0766 17.6535 33.3438 23.2805 33.3438 23.2805C36.7812 22.3398 40.4766 21.8527 44.1375 21.8527C47.7984 21.8527 51.4938 22.3398 54.9313 23.2805C54.9313 23.2805 63.1984 17.6367 66.7906 18.7453C69.1453 24.5738 67.6844 29.0586 67.2375 30.1504C69.9875 33.1234 71.6719 35.4414 71.6719 40.0438C71.6719 56.2527 61.5484 57.5461 51.9406 58.6043C53.5219 59.9313 54.8625 62.4508 54.8625 66.3981C54.8625 72.0586 54.8109 79.0629 54.8109 80.4402C54.8109 81.532 55.6016 82.859 57.7844 82.4727C74.9719 76.8961 86.625 60.9559 86.625 42.3281C86.625 19.0309 67.2891 1.34375 43.45 1.34375ZM18.0812 59.2762C17.8578 59.4441 17.9094 59.8305 18.2016 60.1496C18.4766 60.4184 18.8719 60.5359 19.0953 60.3176C19.3187 60.1496 19.2672 59.7633 18.975 59.4441C18.7 59.1754 18.3047 59.0578 18.0812 59.2762ZM16.225 57.9156C16.1047 58.134 16.2766 58.4027 16.6203 58.5707C16.8953 58.7387 17.2391 58.6883 17.3594 58.4531C17.4797 58.2348 17.3078 57.966 16.9641 57.7981C16.6203 57.6973 16.3453 57.7477 16.225 57.9156ZM21.7938 63.8953C21.5188 64.1137 21.6219 64.6176 22.0172 64.9367C22.4125 65.3231 22.9109 65.3734 23.1344 65.1047C23.3578 64.8863 23.2547 64.3824 22.9109 64.0633C22.5328 63.677 22.0172 63.6266 21.7938 63.8953ZM19.8344 61.4262C19.5594 61.5941 19.5594 62.0309 19.8344 62.4172C20.1094 62.8035 20.5734 62.9715 20.7969 62.8035C21.0719 62.5852 21.0719 62.1484 20.7969 61.7621C20.5563 61.3758 20.1094 61.2078 19.8344 61.4262Z" fill="black"/>
<path d="M29.8891 66.7508C29.8891 67.0867 29.4937 67.3555 28.9953 67.3555C28.4281 67.4059 28.0328 67.1371 28.0328 66.7508C28.0328 66.4148 28.4281 66.1461 28.9266 66.1461C29.4422 66.0957 29.8891 66.3645 29.8891 66.7508ZM24.5438 65.9949C24.4234 66.3309 24.7672 66.7172 25.2828 66.818C25.7297 66.9859 26.2453 66.818 26.3484 66.482C26.4516 66.1461 26.125 65.7598 25.6094 65.6086C25.1625 65.491 24.6641 65.659 24.5438 65.9949ZM32.1406 65.7094C31.6422 65.827 31.2984 66.1461 31.35 66.5324C31.4016 66.8684 31.8484 67.0867 32.3641 66.9691C32.8625 66.8516 33.2062 66.5324 33.1547 66.1965C33.1031 65.8774 32.6391 65.659 32.1406 65.7094ZM43.45 1.34375C19.6109 1.34375 1.375 19.0309 1.375 42.3281C1.375 60.9559 13.3719 76.8961 30.5078 82.5063C32.7078 82.8926 33.4813 81.5656 33.4813 80.4738C33.4813 79.4324 33.4297 73.6879 33.4297 70.1606C33.4297 70.1606 21.3984 72.6801 18.8719 65.1551C18.8719 65.1551 16.9125 60.2672 14.0938 59.0074C14.0938 59.0074 10.1578 56.3703 14.3687 56.4207C14.3687 56.4207 18.6484 56.7566 21.0031 60.7543C24.7672 67.2379 31.075 65.3734 33.5328 64.2649C33.9281 61.5774 35.0453 59.7129 36.2828 58.6043C26.675 57.5629 16.9813 56.2023 16.9813 40.0438C16.9813 35.4246 18.2875 33.1066 21.0375 30.1504C20.5906 29.0586 19.1297 24.557 21.4844 18.7453C25.0766 17.6535 33.3438 23.2805 33.3438 23.2805C36.7812 22.3398 40.4766 21.8527 44.1375 21.8527C47.7984 21.8527 51.4938 22.3398 54.9313 23.2805C54.9313 23.2805 63.1984 17.6367 66.7906 18.7453C69.1453 24.5738 67.6844 29.0586 67.2375 30.1504C69.9875 33.1234 71.6719 35.4414 71.6719 40.0438C71.6719 56.2527 61.5484 57.5461 51.9406 58.6043C53.5219 59.9313 54.8625 62.4508 54.8625 66.3981C54.8625 72.0586 54.8109 79.0629 54.8109 80.4402C54.8109 81.532 55.6016 82.859 57.7844 82.4727C74.9719 76.8961 86.625 60.9559 86.625 42.3281C86.625 19.0309 67.2891 1.34375 43.45 1.34375ZM18.0812 59.2762C17.8578 59.4441 17.9094 59.8305 18.2016 60.1496C18.4766 60.4184 18.8719 60.5359 19.0953 60.3176C19.3187 60.1496 19.2672 59.7633 18.975 59.4441C18.7 59.1754 18.3047 59.0578 18.0812 59.2762ZM16.225 57.9156C16.1047 58.134 16.2766 58.4027 16.6203 58.5707C16.8953 58.7387 17.2391 58.6883 17.3594 58.4531C17.4797 58.2348 17.3078 57.966 16.9641 57.7981C16.6203 57.6973 16.3453 57.7477 16.225 57.9156ZM21.7938 63.8953C21.5188 64.1137 21.6219 64.6176 22.0172 64.9367C22.4125 65.3231 22.9109 65.3734 23.1344 65.1047C23.3578 64.8863 23.2547 64.3824 22.9109 64.0633C22.5328 63.677 22.0172 63.6266 21.7938 63.8953ZM19.8344 61.4262C19.5594 61.5941 19.5594 62.0309 19.8344 62.4172C20.1094 62.8035 20.5734 62.9715 20.7969 62.8035C21.0719 62.5852 21.0719 62.1484 20.7969 61.7621C20.5563 61.3758 20.1094 61.2078 19.8344 61.4262Z" fill="url(#paint1_linear_169_7)"/>
<defs>
<linearGradient id="paint0_linear_169_7" x1="2" y1="-8.90371" x2="68.2332" y2="23.385" gradientUnits="userSpaceOnUse">
<stop stop-color="white"/>
<stop offset="1" stop-color="white"/>
</linearGradient>
<linearGradient id="paint1_linear_169_7" x1="1.375" y1="-8.23348" x2="67.3099" y2="25.5002" gradientUnits="userSpaceOnUse">
<stop stop-color="#003E5C"/>
<stop offset="1" stop-color="#011926"/>
</linearGradient>
</defs>
</svg>
