<svg width="84" height="84" viewBox="0 0 84 84" fill="none" xmlns="http://www.w3.org/2000/svg">
<circle cx="42" cy="42" r="42" fill="url(#paint0_linear_169_4)"/>
<path d="M27.5016 64.5H16.6172V29.4492H27.5016V64.5ZM22.0535 24.668C18.573 24.668 15.75 21.7852 15.75 18.3047C15.75 16.6329 16.4141 15.0296 17.5963 13.8474C18.7784 12.6653 20.3817 12.0012 22.0535 12.0012C23.7253 12.0012 25.3286 12.6653 26.5108 13.8474C27.6929 15.0296 28.357 16.6329 28.357 18.3047C28.357 21.7852 25.5328 24.668 22.0535 24.668ZM68.2383 64.5H57.3773V47.4375C57.3773 43.3711 57.2953 38.1563 51.7184 38.1563C46.0594 38.1563 45.1922 42.5742 45.1922 47.1445V64.5H34.3195V29.4492H44.7586V34.2305H44.9109C46.3641 31.4766 49.9137 28.5703 55.2094 28.5703C66.225 28.5703 68.25 35.8242 68.25 45.2461V64.5H68.2383Z" fill="white"/>
<defs>
<linearGradient id="paint0_linear_169_4" x1="3.00487e-06" y1="-9.90371" x2="66.2332" y2="22.385" gradientUnits="userSpaceOnUse">
<stop stop-color="#003E5C"/>
<stop offset="1" stop-color="#011926"/>
</linearGradient>
</defs>
</svg>
