<svg width="25" height="25" viewBox="0 0 25 25" fill="none" xmlns="http://www.w3.org/2000/svg">
<path d="M3.3 1H21.7C22.31 1 22.895 1.24232 23.3263 1.67365C23.7577 2.10499 24 2.69 24 3.3V21.7C24 22.31 23.7577 22.895 23.3263 23.3263C22.895 23.7577 22.31 24 21.7 24H3.3C2.69 24 2.10499 23.7577 1.67365 23.3263C1.24232 22.895 1 22.31 1 21.7V3.3C1 2.69 1.24232 2.10499 1.67365 1.67365C2.10499 1.24232 2.69 1 3.3 1ZM5.6 5.6V10.2H10.2V12.5H7.9V19.4H10.2V17.1H14.8V19.4H17.1V12.5H14.8V10.2H19.4V5.6H14.8V10.2H10.2V5.6H5.6Z" fill="white"/>
</svg>
