<svg width="21" height="21" viewBox="0 0 21 21" fill="none" xmlns="http://www.w3.org/2000/svg">
<g clip-path="url(#clip0_111_13)">
<path d="M10.5 6.5625C8.33027 6.5625 6.5625 8.33027 6.5625 10.5C6.5625 12.6697 8.33027 14.4375 10.5 14.4375C12.6697 14.4375 14.4375 12.6697 14.4375 10.5C14.4375 8.33027 12.6697 6.5625 10.5 6.5625ZM20.6062 9.86426L16.7221 7.92422L18.0961 3.80625C18.2807 3.24844 17.7516 2.71934 17.1979 2.90801L13.0799 4.28203L11.1357 0.39375C10.8732 -0.13125 10.1268 -0.13125 9.86426 0.39375L7.92422 4.27793L3.80215 2.90391C3.24434 2.71934 2.71523 3.24844 2.90391 3.80215L4.27793 7.92012L0.39375 9.86426C-0.13125 10.1268 -0.13125 10.8732 0.39375 11.1357L4.27793 13.0758L2.90391 17.1979C2.71934 17.7557 3.24844 18.2848 3.80215 18.0961L7.92012 16.7221L9.86016 20.6062C10.1227 21.1313 10.8691 21.1313 11.1316 20.6062L13.0717 16.7221L17.1896 18.0961C17.7475 18.2807 18.2766 17.7516 18.0879 17.1979L16.7139 13.0799L20.598 11.1398C21.1313 10.8732 21.1313 10.1268 20.6062 9.86426ZM14.2119 14.2119C12.1652 16.2586 8.83477 16.2586 6.78809 14.2119C4.74141 12.1652 4.74141 8.83477 6.78809 6.78809C8.83477 4.74141 12.1652 4.74141 14.2119 6.78809C16.2586 8.83477 16.2586 12.1652 14.2119 14.2119Z" fill="white"/>
</g>
<defs>
<clipPath id="clip0_111_13">
<rect width="21" height="21" fill="white"/>
</clipPath>
</defs>
</svg>
