<svg width="90" height="90" viewBox="0 0 90 90" fill="none" xmlns="http://www.w3.org/2000/svg">
<path d="M48.2466 12.7733L74.7156 26.3534C76.7413 27.3909 78 29.3352 78 31.4199V58.5801C78 60.6648 76.7413 62.6091 74.7156 63.6522L48.2466 77.2267C47.247 77.7416 46.1235 78 45 78C43.8765 78 42.753 77.7416 41.7534 77.2267L15.2844 63.6466C13.2587 62.6091 12 60.6648 12 58.5801V31.4199C12 29.3352 13.2587 27.3909 15.2844 26.3534L41.7534 12.7733C42.753 12.2584 43.8765 12 45 12C46.1235 12 47.247 12.2584 48.2466 12.7733ZM26.1429 45C26.1429 54.4939 34.602 62.2175 45 62.2175C50.9415 62.2175 56.4354 59.7009 59.996 55.4194L53.1086 51.7764C51.0406 53.844 48.1004 55.0435 45 55.0435C38.9359 55.0435 34 50.5368 34 45C34 39.4632 38.9359 34.9565 45 34.9565C48.1004 34.9565 51.0406 36.156 53.1086 38.2236L59.996 34.5806C56.4354 30.2991 50.9415 27.7825 45 27.7825C34.602 27.7825 26.1429 35.5061 26.1429 45Z" fill="black"/>
</svg>
