<svg width="90" height="90" viewBox="0 0 90 90" fill="none" xmlns="http://www.w3.org/2000/svg">
<path d="M44.1596 23.7417C40.9821 25.9765 37.3808 28.5096 35.4512 32.7004C32.0996 40.0114 42.3095 47.9866 42.7457 48.3226C42.8472 48.4008 42.9685 48.4396 43.0896 48.4396C43.2181 48.4396 43.3468 48.3956 43.4514 48.3081C43.6541 48.1386 43.7116 47.8506 43.5899 47.6162C43.5529 47.5449 39.8882 40.4265 40.0244 35.3194C40.0726 33.5409 42.5618 31.5232 45.197 29.3869C47.6106 27.4303 50.3465 25.2126 51.9473 22.6184C55.4614 16.908 51.5556 11.293 51.5157 11.2371C51.3606 11.0193 51.0743 10.9401 50.8294 11.0477C50.5848 11.1555 50.4493 11.4202 50.5052 11.6815C50.5131 11.7184 51.2727 15.4317 49.1591 19.2572C48.2882 20.8379 46.3751 22.1837 44.1596 23.7417Z" fill="black"/>
<path d="M57.5467 26.2599C57.7709 26.091 57.8367 25.783 57.701 25.5373C57.5652 25.2915 57.2696 25.1831 57.0072 25.2827C56.4674 25.4879 43.7888 30.3749 43.7888 36.2801C43.7888 40.3505 45.5276 42.501 46.7972 44.0713C47.2952 44.6871 47.7252 45.219 47.8668 45.6731C48.2656 46.9817 47.3207 49.3468 46.9234 50.1477C46.8089 50.3781 46.865 50.657 47.0598 50.8252C47.1651 50.9161 47.2966 50.9621 47.4282 50.9621C47.5403 50.9621 47.6528 50.9287 47.75 50.8611C47.968 50.7093 53.0778 47.0967 52.1612 42.744C51.8199 41.0898 51.0069 39.8808 50.2894 38.8141C49.1781 37.1617 48.3754 35.9678 49.5932 33.763C51.0204 31.1918 57.4816 26.3088 57.5467 26.2599Z" fill="black"/>
<path d="M24.5441 51.0561C24.3267 51.7066 24.4293 52.3525 24.8405 52.9236C26.215 54.8315 31.0833 55.8824 38.5494 55.8824C38.5498 55.8824 38.5503 55.8824 38.5503 55.8824C39.5619 55.8824 40.63 55.8626 41.724 55.8234C53.6608 55.3959 58.0883 51.6772 58.271 51.5192C58.4701 51.3469 58.5233 51.0599 58.3995 50.8277C58.2757 50.5957 58.0087 50.4791 57.7537 50.5492C53.5499 51.6971 45.6996 52.1045 40.2546 52.1045C34.1618 52.1045 31.0589 51.6657 30.2993 51.3417C30.6891 50.8065 33.0933 49.8507 36.0724 49.2647C36.3572 49.2088 36.5529 48.9459 36.5247 48.6571C36.4965 48.3683 36.2539 48.148 35.9637 48.148C34.2173 48.1482 25.4594 48.2885 24.5441 51.0561Z" fill="black"/>
<path d="M64.4873 47.2263C62.0252 47.2263 59.6905 48.4601 59.5922 48.5126C59.3645 48.6346 59.249 48.8957 59.3115 49.1464C59.3741 49.3969 59.5994 49.573 59.8578 49.5732C59.9101 49.5734 65.1096 49.6158 65.5806 52.5866C65.9977 55.1495 60.6609 59.3021 58.5692 60.686C58.3433 60.8355 58.2556 61.1245 58.3604 61.3741C58.4495 61.5868 58.6567 61.7198 58.8799 61.7198C58.9189 61.7198 58.9584 61.7157 58.9976 61.7072C59.4941 61.6012 71.1401 59.0349 69.9089 52.254C69.1576 48.0984 66.5458 47.2263 64.4873 47.2263Z" fill="black"/>
<path d="M56.5006 59.8563C56.5412 59.6389 56.4508 59.418 56.2699 59.2913L53.4775 57.3353C53.3414 57.24 53.1693 57.21 53.0095 57.2524C52.9804 57.26 50.0601 58.0275 45.8205 58.4983C44.1378 58.687 42.2531 58.7867 40.3698 58.7867C36.1312 58.7867 33.3598 58.2886 32.9562 57.9234C32.9028 57.8208 32.9197 57.7741 32.9292 57.7482C33.0024 57.5441 33.3954 57.3017 33.6488 57.2059C33.9286 57.1024 34.0795 56.7985 33.9925 56.5131C33.9057 56.2276 33.6114 56.0594 33.321 56.1293C30.5198 56.8053 29.1501 57.7507 29.2498 58.9389C29.4268 61.0454 34.3065 62.1267 38.4319 62.4129C39.0251 62.4534 39.6668 62.4742 40.3384 62.4742C40.3389 62.4742 40.3391 62.4742 40.3396 62.4742C47.1994 62.4742 55.9935 60.3219 56.0814 60.3C56.2961 60.247 56.4598 60.0736 56.5006 59.8563Z" fill="black"/>
<path d="M35.4479 64.378C35.6593 64.2403 35.7531 63.9789 35.6781 63.7381C35.6032 63.4974 35.378 63.3393 35.125 63.3425C34.7496 63.3524 31.4517 63.5012 31.2208 65.601C31.1509 66.2284 31.3306 66.8016 31.7552 67.3046C32.9393 68.7079 36.1355 69.5419 41.5251 69.8546C42.1627 69.8927 42.8103 69.9119 43.4504 69.9119C50.3023 69.9119 54.9169 67.7666 55.1102 67.6753C55.2975 67.5866 55.4211 67.4027 55.4321 67.1957C55.4432 66.9889 55.3399 66.7926 55.1631 66.6846L51.6341 64.5302C51.5117 64.4556 51.3651 64.4308 51.2254 64.4594C51.203 64.4642 48.9623 64.9288 45.5808 65.3881C44.9409 65.4749 44.1396 65.5191 43.1994 65.5191C39.8215 65.5191 36.0643 64.9672 35.3437 64.606C35.3333 64.5381 35.3466 64.4524 35.4479 64.378Z" fill="black"/>
<path d="M40.2571 76.3894C55.9518 76.3761 64.3755 73.585 65.9982 71.8286C66.5727 71.207 66.6347 70.6188 66.5857 70.2346C66.4651 69.289 65.6041 68.7102 65.5062 68.6473C65.2706 68.4958 64.9545 68.5354 64.7707 68.7474C64.5874 68.9596 64.5831 69.2691 64.7671 69.4808C64.8661 69.6082 64.9234 69.8213 64.6339 70.111C63.9852 70.7168 57.4422 72.556 46.548 73.1084C45.0557 73.1862 43.4905 73.2254 41.896 73.2256C32.1418 73.2256 25.0033 71.8897 24.0663 71.111C24.4277 70.5922 26.9525 69.7629 29.6378 69.2941C29.9404 69.2414 30.1449 68.9562 30.098 68.6527C30.0511 68.3492 29.7713 68.1402 29.4655 68.1801C29.3898 68.1903 29.133 68.206 28.8351 68.2241C24.4045 68.4946 19.2844 69.0978 19.0172 71.3804C18.936 72.0762 19.1428 72.7075 19.6318 73.2572C20.8284 74.6016 24.2678 76.3891 40.2564 76.3891C40.2568 76.3894 40.2571 76.3894 40.2571 76.3894Z" fill="black"/>
<path d="M69.081 72.3235C68.8591 72.2209 68.5971 72.2727 68.4314 72.4513C68.4082 72.4761 66.0487 74.9436 58.9539 76.3925C56.2377 76.9368 51.1392 77.2127 43.8001 77.2127C36.4471 77.2127 29.4507 76.9234 29.3808 76.9205C29.0886 76.9063 28.8385 77.1187 28.7989 77.4064C28.7589 77.6941 28.9443 77.9649 29.2266 78.0321C29.2994 78.0494 36.6318 79.7673 46.6574 79.7673C51.4659 79.7673 56.1451 79.3765 60.5651 78.6059C68.8066 77.1611 69.3836 73.0745 69.4041 72.9013C69.4327 72.6592 69.3024 72.4261 69.081 72.3235Z" fill="black"/>
</svg>
