<svg width="90" height="90" viewBox="0 0 90 90" fill="none" xmlns="http://www.w3.org/2000/svg">
<path d="M74.6173 11.4804C74.3397 11.1744 73.9497 11 73.5392 11L16.4608 11C16.0503 11 15.6603 11.1744 15.3827 11.4804C15.1052 11.7864 14.9693 12.1974 15.0058 12.6098L20.148 70.8932C20.2021 71.5023 20.6213 72.0152 21.2028 72.1837L44.591 78.9438C44.721 78.9808 44.8569 79 44.9913 79C45.1257 79 45.2615 78.9808 45.3915 78.9438L68.8002 72.1837C69.3816 72.0152 69.8009 71.5023 69.8549 70.8932L74.9942 12.6098C75.0307 12.1974 74.8934 11.7864 74.6173 11.4804ZM26.009 50.919L36.2349 53.7897L36.2349 24.3043L42.0783 24.3043L42.0783 62.7391L26.009 58.229L26.009 50.919ZM64.07 40.5652L62.5302 58.6739L47.9217 62.7391L47.9217 55.9376L57.7825 53.1955L58.1477 47.652L47.9217 49.4348L47.9217 24.3043L65.4519 24.3043L64.9479 30.2174L53.7651 30.2174L53.7651 42.0435L64.07 40.5652Z" fill="black"/>
</svg>
