<svg width="90" height="90" viewBox="0 0 90 90" fill="none" xmlns="http://www.w3.org/2000/svg">
<path d="M71.775 28.125C74.6194 28.125 77.3474 29.2549 79.3587 31.2663C81.37 33.2776 82.5 36.0056 82.5 38.85V53.025C82.5 55.8694 81.37 58.5974 79.3587 60.6087C77.3474 62.62 74.6194 63.75 71.775 63.75H45C45 65.2125 46.2 67.35 47.6625 67.35H63.75V73.65C63.75 76.4944 62.62 79.2224 60.6087 81.2337C58.5974 83.245 55.8694 84.375 53.025 84.375H36.975C34.1306 84.375 31.4026 83.245 29.3913 81.2337C27.38 79.2224 26.25 76.4944 26.25 73.65V59.5875C26.25 53.6625 31.05 48.9 36.975 48.9H56.6625C62.5875 48.9 67.35 44.1 67.35 38.175V28.125H71.775ZM55.725 72.3375C54.225 72.3375 53.025 73.4625 53.025 75.675C53.025 77.8875 54.225 78.3375 55.725 78.3375C56.0746 78.3375 56.4209 78.2686 56.7439 78.1348C57.0669 78.001 57.3604 77.8049 57.6077 77.5577C57.8549 77.3104 58.051 77.0169 58.1848 76.6939C58.3186 76.3709 58.3875 76.0246 58.3875 75.675C58.3875 73.4625 57.1875 72.3375 55.725 72.3375ZM18.225 65.625C12.3 65.625 7.5 60.825 7.5 54.9V40.725C7.5 34.8 12.3 30 18.225 30H45C45 28.5375 43.8 26.4 42.3375 26.4H26.25V20.1C26.25 14.175 31.05 9.375 36.975 9.375H53.025C58.95 9.375 63.75 14.175 63.75 20.1V34.1625C63.75 40.0875 58.95 44.85 53.025 44.85H33.3375C27.4125 44.85 22.65 49.65 22.65 55.575V65.625H18.225ZM34.275 21.4125C35.775 21.4125 36.975 20.2875 36.975 18.075C36.975 15.8625 35.775 15.4125 34.275 15.4125C32.8125 15.4125 31.6125 15.8625 31.6125 18.075C31.6125 20.2875 32.8125 21.4125 34.275 21.4125Z" fill="black"/>
</svg>
